<svg width="66" height="54" viewBox="0 0 66 54" fill="none" xmlns="http://www.w3.org/2000/svg">
<g clip-path="url(#clip0_2_69)">
<path d="M21.1262 0.100903C11.2779 1.06643 3.22266 5.53542 0.850231 11.3286C-0.418743 14.501 0.160571 18.0045 2.42266 20.7907L3.19507 21.7562L3.05714 30.2528C2.91921 39.3012 2.97438 40.0184 3.71922 41.5633C4.46405 43.1357 5.23647 43.6322 9.62271 45.4805C18.9745 49.4254 24.0504 51.2737 27.5539 52.0737C28.7677 52.3495 32.1884 52.7082 32.7401 52.5978C35.4987 52.1013 58.1472 47.0254 58.7265 46.7495C59.1679 46.5288 59.7196 46.0874 59.9955 45.7012C60.961 44.3771 60.9886 44.0736 61.0989 33.6184L61.2093 23.9907L61.6782 23.6321C62.6713 22.9149 63.9679 21.3976 64.492 20.3493C66.8093 15.632 64.2989 10.6665 58.092 7.63199C50.9195 4.12852 40.6022 1.25953 31.3884 0.211249C29.2366 0.0181442 22.9469 -0.0922018 21.1262 0.100903ZM28.8228 2.91472C31.8573 3.16299 35.1125 3.63196 38.6988 4.37679C42.9195 5.28715 42.8367 5.23197 40.0229 5.56301C35.5539 6.08715 31.416 7.38371 28.4366 9.12165C22.4504 12.5975 19.6642 18.1148 21.3745 22.9976C21.7331 24.0459 22.5607 25.2873 23.3883 26.0045C24.2159 26.7769 24.078 26.7769 21.7331 26.2252C18.2021 25.37 14.0089 23.6873 8.35373 20.901C5.12612 19.301 4.79509 19.1079 4.29853 18.3907C2.09162 15.1631 3.00197 11.3286 6.75372 8.29406C11.7469 4.26645 19.9676 2.28023 28.8228 2.91472ZM48.6575 8.29406C55.0299 8.87338 60.1058 11.301 61.761 14.5286C62.4782 15.9355 62.561 17.4803 61.9817 18.7217C61.4575 19.8252 60.6851 20.7631 59.6368 21.4804C58.3127 22.3907 58.2023 22.8045 58.2023 26.8873C58.2023 28.8183 58.1472 33.3701 58.092 36.9563C58.0092 42.6943 57.9541 43.5495 57.7058 43.8529C57.4575 44.1564 55.3058 44.6805 44.9333 46.9702C38.0919 48.4874 32.2711 49.7288 31.9953 49.7288C31.1953 49.7288 30.6711 49.3702 30.2573 48.5426C29.8711 47.7702 29.8711 47.5495 29.8711 43.9357C29.8711 41.8391 29.8987 37.0667 29.9539 33.3149C30.0366 25.5356 30.1194 26.0321 28.4366 25.5356C25.7056 24.7631 24.1056 23.0528 23.8021 20.6528C23.3883 17.4803 26.3952 13.3975 30.7263 11.1906C35.416 8.84579 42.285 7.74233 48.6575 8.29406ZM8.29856 24.1562C15.1124 27.577 21.5676 29.6459 26.147 29.839L27.1125 29.8666L27.0849 35.4115C27.0573 38.4736 27.0021 42.2805 26.947 43.9081C26.8642 46.2529 26.8918 47.053 27.1125 47.853C27.3608 48.8461 27.3608 48.8461 27.0021 48.8461C25.4849 48.8461 7.63649 41.7012 6.72613 40.7357C5.87096 39.8253 5.87096 39.577 6.00889 31.0804C6.09165 26.7494 6.20199 23.1907 6.28475 23.1907C6.31234 23.2183 7.25028 23.6597 8.29856 24.1562Z" fill="black"/>
<path d="M28.8228 2.91472C31.8573 3.16299 35.1125 3.63196 38.6988 4.37679C42.9195 5.28715 42.8367 5.23197 40.0229 5.56301C35.5539 6.08715 31.416 7.38371 28.4366 9.12165C22.4504 12.5975 19.6642 18.1148 21.3745 22.9976C21.7331 24.0459 22.5607 25.2873 23.3883 26.0045C24.2159 26.7769 24.078 26.7769 21.7331 26.2252C18.2021 25.37 14.0089 23.6873 8.35373 20.901C5.12612 19.301 4.79509 19.1079 4.29853 18.3907C2.09162 15.1631 3.00197 11.3286 6.75372 8.29406C11.7469 4.26645 19.9676 2.28023 28.8228 2.91472Z" fill="black"/>
<path d="M8.29856 24.1562C15.1124 27.577 21.5676 29.6459 26.147 29.839L27.1125 29.8666L27.0849 35.4115C27.0573 38.4736 27.0021 42.2805 26.947 43.9081C26.8642 46.2529 26.8918 47.053 27.1125 47.853C27.3608 48.8461 27.3608 48.8461 27.0021 48.8461C25.4849 48.8461 7.63649 41.7012 6.72613 40.7357C5.87096 39.8253 5.87096 39.577 6.00889 31.0804C6.09165 26.7494 6.20199 23.1907 6.28475 23.1907C6.31234 23.2183 7.25028 23.6597 8.29856 24.1562Z" fill="black"/>
<path d="M31.1677 13.232C29.1815 14.0596 28.1608 14.9424 27.4435 16.5424C26.5884 18.4183 26.7815 20.6803 27.9677 22.4735C28.4918 23.2735 28.6573 23.3838 29.1539 23.3838C29.8711 23.3838 30.5884 22.8597 30.7263 22.1976C30.8091 21.839 30.6987 21.4252 30.2849 20.7079C29.7056 19.5769 29.5953 18.6389 30.0366 17.7286C30.3953 16.9562 31.416 16.1286 32.2711 15.8803C33.6505 15.4941 34.1746 14.2527 33.3746 13.232C32.9608 12.7079 32.4367 12.6803 31.1677 13.232Z" fill="black"/>
<path d="M35.5539 31.0252C34.7263 31.3563 34.6988 31.6321 34.5608 37.4529C34.4505 42.7495 34.4505 42.9426 34.7815 43.3564C35.2505 43.9357 36.3539 43.9357 36.9608 43.3839L37.3746 42.9977L37.485 37.6184C37.5953 31.7425 37.5677 31.5218 36.6574 31.108C36.1057 30.8045 36.0781 30.8045 35.5539 31.0252Z" fill="black"/>
</g>
<defs>
<clipPath id="clip0_2_69">
<rect width="66" height="53.122" fill="white"/>
</clipPath>
</defs>
</svg>
